<?xml version="1.0" encoding="utf-8"?>
<!-- Generator: Adobe Illustrator 27.5.0, SVG Export Plug-In . SVG Version: 6.00 Build 0)  -->
<svg version="1.1" xmlns="http://www.w3.org/2000/svg" xmlns:xlink="http://www.w3.org/1999/xlink" x="0px" y="0px"
	 viewBox="0 0 500 500" style="enable-background:new 0 0 500 500;" xml:space="preserve">
<g id="BACKGROUND">
	<rect style="fill:#FFFFFF;" width="500" height="500"/>
</g>
<g id="OBJECTS">
	<g>
		<g>
			<g>
				<path style="fill:#D4EDF4;" d="M388.786,451.195h-278.32c-30.38-31.513-52.266-73.581-62.996-120.13
					c-31.792-137.913,19.468-177.41,65.709-170.786c94.382,13.529-1.26-48.542,51.921-91.013
					c46.607-37.235,137.32-21.294,160.822,28.77c33.154,70.606,130.457,36.322,139.74,146.917
					C470.962,308.101,451.447,394.334,388.786,451.195z"/>
				<path style="fill:#D4EDF4;" d="M354.477,122.086C341.288,109.164,330.596,90,334.678,72.819
					c4.924-20.726,30.793-17.331,43.682-9.211c17.175,10.819,28.289,38.442,21.257,59.793c-4.509,13.691-16.01,16.445-27.197,11.475
					C366.661,132.317,360.323,127.815,354.477,122.086z"/>
			</g>
			<g>
				<g>
					<path style="fill:#6FB4C4;" d="M119.46,426.931c-4.6-24.579-9.523-49.197-17.832-72.901s-20.142-46.594-37.348-65.607
						c20.001,47.877,40.224,96.63,44.484,147.907"/>
					<path style="fill:#6FB4C4;" d="M114.149,437.038c-5.618-48.893-35.35-94.87-78.948-122.082
						c33.074,34.602,57.142,76.749,69.538,121.774"/>
					<path style="fill:#6FB4C4;" d="M115.841,425.259c-16.18-32.408-46.483-58.346-82.331-70.471
						c29.062,22.557,53.37,50.498,71.117,81.744"/>
					<path style="fill:#9DD8E5;" d="M115.768,427.964c-17.283-44.115-23.924-91.876-19.284-138.682
						c5.349,48.342,13.383,97.24,35.272,141.277"/>
					<path style="fill:#9DD8E5;" d="M115.03,411.873c-12.848-38.594-33.173-74.98-59.679-106.84
						c25.033,40.315,44.205,83.839,56.816,128.985"/>
					<path style="fill:#9DD8E5;" d="M114.24,419.453c-9.524-15.765-19.119-31.578-30.981-45.874
						c-11.862-14.296-26.158-27.123-43.295-35.45c30.143,27.886,53.844,61.889,69.003,98.994"/>
					<path style="fill:#9DD8E5;" d="M115.302,430.039c-16.455-26.772-48.255-44.612-81.146-45.521
						c30.114,9.907,56.472,29.596,73.534,54.927"/>
				</g>
				<g>
					<g>
						<path style="fill:#5BABBA;" d="M409.89,365.16c1.45-5.726,8.551-12.897,14.032-13.189c1.484-0.079,3.067,0.212,4.389-0.492
							c3.392-1.805,2.136-8.049,5.044-10.653c1.762-1.577,4.412-1.208,6.616-0.379c2.204,0.829,4.393,2.054,6.7,1.942
							c2.24-0.109,4.209-1.461,6.267-2.378c2.632-1.173,5.716-1.629,8.363-0.335c2.647,1.294,4.554,4.726,3.635,7.66
							c-1.091,3.482-5.122,4.505-7.432,7.165c-4.676,5.384-1.27,15.924-6.514,20.65c-3.32,2.992-8.678,2.086-11.96,5.126
							c-2.692,2.493-3.177,6.894-5.476,9.816c-2.537,3.224-6.982,4.094-10.845,3.057c-3.863-1.037-7.231-3.687-10.213-6.603
							C412.496,386.547,407.051,376.371,409.89,365.16z"/>
						<g>
							<path style="fill:none;stroke:#9DD8E5;stroke-linecap:round;stroke-linejoin:round;stroke-miterlimit:10;" d="
								M459.03,344.301c-10.183,6.672-20.346,13.462-29.568,21.598c-9.223,8.135-17.527,17.693-23.29,29.016"/>
							<path style="fill:none;stroke:#9DD8E5;stroke-linecap:round;stroke-linejoin:round;stroke-miterlimit:10;" d="
								M438.06,358.885c-0.1-4.539-0.908-9.08-2.379-13.37"/>
							<path style="fill:none;stroke:#9DD8E5;stroke-linecap:round;stroke-linejoin:round;stroke-miterlimit:10;" d="
								M432.136,363.739c6.478,0.387,12.794,4.232,16.563,10.083"/>
							<path style="fill:none;stroke:#9DD8E5;stroke-linecap:round;stroke-linejoin:round;stroke-miterlimit:10;" d="
								M449.087,350.861c2.649-0.347,5.385-0.041,7.947,0.888"/>
							<path style="fill:none;stroke:#9DD8E5;stroke-linecap:round;stroke-linejoin:round;stroke-miterlimit:10;" d="
								M415.408,380.642c5.289,0.471,10.483,2.647,14.755,6.183"/>
							<path style="fill:none;stroke:#9DD8E5;stroke-linecap:round;stroke-linejoin:round;stroke-miterlimit:10;" d="
								M418.403,377.14c-0.192-5.697-1.256-11.385-3.133-16.758"/>
						</g>
					</g>
					<g>
						<path style="fill:#85C5D7;" d="M413.525,371.178c4.698-1.673,9.767-2.363,14.183-4.679c4.416-2.317,8.197-6.999,7.302-11.905
							c-0.552-3.025-2.781-5.634-2.891-8.707c-0.131-3.639,2.68-6.616,5.128-9.312c2.448-2.696,4.865-6.23,3.78-9.706
							c-0.775-2.484-3.24-4.384-3.282-6.985c-0.051-3.176,3.475-5.25,4.367-8.298c0.821-2.806-0.96-5.959-3.607-7.2
							c-2.647-1.241-5.867-0.794-8.421,0.627c-2.554,1.421-4.524,3.706-6.143,6.14c-2.757,4.144-4.927,9.113-9.354,11.389
							c-2.023,1.04-4.336,1.397-6.391,2.372c-4.268,2.024-7.018,6.866-6.57,11.569c0.294,3.093,1.81,6.283,0.656,9.168
							c-0.795,1.987-2.671,3.283-4.217,4.762c-4.237,4.053-6.302,10.256-5.341,16.04c0.732,4.405,4.052,11.005,8.661,12.567
							c2.517,0.853,3.541-2.425,5.19-3.899C408.569,373.335,411.017,372.071,413.525,371.178z"/>
						<g>
							<path style="fill:none;stroke:#9DD8E5;stroke-linecap:round;stroke-miterlimit:10;" d="M399.059,396.341
								c5.765-29.861,17.767-58.502,35.013-83.551"/>
							<path style="fill:none;stroke:#9DD8E5;stroke-linecap:round;stroke-miterlimit:10;" d="M424.482,327.98
								c2.436-1.113,5.044-1.849,7.703-2.174"/>
							<path style="fill:none;stroke:#9DD8E5;stroke-linecap:round;stroke-miterlimit:10;" d="M417.084,342.112
								c-1.241-3.865-3.07-7.541-5.403-10.863"/>
							<path style="fill:none;stroke:#9DD8E5;stroke-linecap:round;stroke-miterlimit:10;" d="M409.098,360.81
								c6.33-1.822,12.882-2.872,19.464-3.118"/>
							<path style="fill:none;stroke:#9DD8E5;stroke-linecap:round;stroke-miterlimit:10;" d="M407.117,365.83
								c-1.689-3.82-5.019-6.882-8.967-8.244"/>
						</g>
					</g>
					<g>
						<path style="fill:#85C5D7;" d="M406.887,414.238c4.179,1.506,8.058,3.898,12.407,4.802s9.6-0.181,11.759-4.063
							c1.331-2.394,1.273-5.45,2.935-7.627c1.969-2.578,5.587-3.038,8.796-3.508c3.21-0.47,6.871-1.535,8.091-4.541
							c0.872-2.147,0.25-4.849,1.692-6.663c1.761-2.214,5.361-1.647,7.699-3.241c2.152-1.467,2.71-4.644,1.591-6.995
							c-1.119-2.351-3.589-3.865-6.15-4.331c-2.562-0.467-5.21-0.008-7.701,0.751c-4.241,1.293-8.545,3.485-12.879,2.547
							c-1.981-0.429-3.774-1.491-5.74-1.983c-4.082-1.021-8.713,0.756-11.065,4.245c-1.547,2.295-2.309,5.348-4.734,6.68
							c-1.671,0.918-3.695,0.748-5.596,0.892c-5.208,0.393-10.138,3.493-12.748,8.017c-1.987,3.445-3.436,9.866-1.148,13.547
							c1.25,2.011,3.809,0.334,5.777,0.252C402.256,412.92,404.656,413.435,406.887,414.238z"/>
						<g>
							<path style="fill:none;stroke:#9DD8E5;stroke-linecap:round;stroke-miterlimit:10;" d="M382.699,423.373
								c20.857-17.289,45.317-30.21,71.354-37.694"/>
							<path style="fill:none;stroke:#9DD8E5;stroke-linecap:round;stroke-miterlimit:10;" d="M438.861,390.708
								c2.306,0.612,4.517,1.581,6.531,2.861"/>
							<path style="fill:none;stroke:#9DD8E5;stroke-linecap:round;stroke-miterlimit:10;" d="M425.776,396.249
								c1.332-3.362,2.153-6.926,2.426-10.532"/>
							<path style="fill:none;stroke:#9DD8E5;stroke-linecap:round;stroke-miterlimit:10;" d="M409.705,404.6
								c5.387,2.326,10.489,5.31,15.159,8.863"/>
							<path style="fill:none;stroke:#9DD8E5;stroke-linecap:round;stroke-miterlimit:10;" d="M405.502,406.934
								c0.999-3.584,0.439-7.574-1.508-10.746"/>
						</g>
					</g>
				</g>
			</g>
			<g>
				<defs>
					<path id="SVGID_1_" d="M388.786,451.195h-278.32c-30.38-31.513-52.266-73.581-62.996-120.13
						c-31.792-137.913,19.468-177.41,65.709-170.786c94.382,13.529-1.26-48.542,51.921-91.013
						c46.607-37.235,137.32-21.294,160.822,28.77c33.154,70.606,130.457,36.322,139.74,146.917
						C470.962,308.101,451.447,394.334,388.786,451.195z"/>
				</defs>
				<clipPath id="SVGID_00000142160710308846009540000018032739389449641877_">
					<use xlink:href="#SVGID_1_"  style="overflow:visible;"/>
				</clipPath>
				<g style="clip-path:url(#SVGID_00000142160710308846009540000018032739389449641877_);">
					<g>
						<path style="fill:#01566D;" d="M290.743,405.73h-76.782c-5.95,0-10.774-4.824-10.774-10.774v-39.544
							c0-5.95,4.824-10.774,10.774-10.774h76.782c5.95,0,10.774,4.824,10.774,10.774v39.544
							C301.517,400.906,296.694,405.73,290.743,405.73z"/>
						<g>
							<path style="fill:#F94B8A;" d="M296.112,359.099v32.176c0,6.13-4.966,11.096-11.096,11.096h-65.321
								c-2.699,0-5.172-0.958-7.099-2.555c-2.452-2.05-4.008-5.11-4.008-8.541v-32.176c0-6.13,4.976-11.107,11.107-11.107h65.321
								c5.038,0,9.293,3.369,10.643,7.964C295.957,356.956,296.112,358.007,296.112,359.099z"/>
							<path style="fill:#F7376D;" d="M296.112,359.099v32.176c0,6.13-4.966,11.096-11.096,11.096h-65.321
								c-2.699,0-5.172-0.958-7.099-2.555c-0.299-0.999-0.464-2.06-0.464-3.163v-32.176c0-6.13,4.976-11.096,11.107-11.096h65.321
								c2.699,0,5.172,0.968,7.099,2.576C295.957,356.956,296.112,358.007,296.112,359.099z"/>
						</g>
					</g>
					<g>
						<g>
							<rect x="88.236" y="384.792" style="fill:#01818E;" width="328.72" height="119.636"/>
							<rect x="88.236" y="389.478" style="fill:#01566D;" width="328.72" height="9.758"/>
						</g>
						<g>
							<rect x="78.722" y="380.492" style="fill:#00657C;" width="347.26" height="8.986"/>
						</g>
					</g>
					<g>
						<g>
							<rect x="283.43" y="376.221" style="fill:#75B3C8;" width="80.933" height="4.282"/>
							<rect x="323.897" y="376.221" style="fill:#448399;" width="80.933" height="4.282"/>
						</g>
						<g>
							<g>
								<polygon style="fill:#75B3C8;" points="336.785,329.795 420.736,329.795 402.506,378.362 321.573,378.362 								"/>
								<polygon style="fill:#4A94A0;" points="339.914,329.795 423.865,329.795 405.635,378.362 324.702,378.362 								"/>
							</g>
							<path style="fill:#D3E8F9;" d="M381.127,354.079c0,2.621-3.064,4.746-6.844,4.746c-3.78,0-6.844-2.125-6.844-4.746
								c0-2.621,3.064-4.747,6.844-4.747C378.063,349.332,381.127,351.457,381.127,354.079z"/>
						</g>
					</g>
					<g>
						<g>
							<rect x="107.223" y="319.446" style="fill:#36A993;" width="15.783" height="61.046"/>
							<g>
								<g>
									<rect x="109.587" y="326.868" style="fill:#FFFFFF;" width="11.055" height="28.439"/>
									<g>
										<rect x="111.594" y="329.794" style="fill:#063C50;" width="7.081" height="1.133"/>
										<rect x="111.574" y="333.854" style="fill:#063C50;" width="7.081" height="1.133"/>
										<rect x="111.574" y="337.915" style="fill:#063C50;" width="7.081" height="1.133"/>
										<rect x="111.604" y="341.975" style="fill:#063C50;" width="7.081" height="1.133"/>
										<rect x="111.584" y="346.036" style="fill:#063C50;" width="7.081" height="1.133"/>
										<rect x="111.584" y="350.096" style="fill:#063C50;" width="7.081" height="1.133"/>
									</g>
								</g>
								<g>
									<circle style="fill:#FFFFFF;" cx="115.115" cy="371.866" r="5.088"/>
									<circle style="fill:#063C50;" cx="115.115" cy="371.866" r="3.609"/>
								</g>
							</g>
						</g>
						<g>
							<rect x="126.171" y="319.446" style="fill:#F7376D;" width="15.783" height="61.046"/>
							<g>
								<g>
									<rect x="128.535" y="326.868" style="fill:#FFFFFF;" width="11.055" height="28.439"/>
									<g>
										<rect x="130.542" y="329.794" style="fill:#063C50;" width="7.081" height="1.133"/>
										<rect x="130.522" y="333.854" style="fill:#063C50;" width="7.081" height="1.133"/>
										<rect x="130.522" y="337.915" style="fill:#063C50;" width="7.081" height="1.133"/>
										<rect x="130.552" y="341.975" style="fill:#063C50;" width="7.081" height="1.133"/>
										<rect x="130.532" y="346.036" style="fill:#063C50;" width="7.081" height="1.133"/>
										<rect x="130.532" y="350.096" style="fill:#063C50;" width="7.081" height="1.133"/>
									</g>
								</g>
								<g>
									<circle style="fill:#FFFFFF;" cx="134.063" cy="371.866" r="5.088"/>
									<circle style="fill:#063C50;" cx="134.063" cy="371.866" r="3.609"/>
								</g>
							</g>
						</g>
						<g>
							<rect x="145.075" y="319.446" style="fill:#FCB211;" width="15.783" height="61.046"/>
							<g>
								<g>
									<rect x="147.438" y="326.868" style="fill:#FFFFFF;" width="11.056" height="28.439"/>
									<g>
										<rect x="149.445" y="329.794" style="fill:#063C50;" width="7.081" height="1.133"/>
										<rect x="149.425" y="333.854" style="fill:#063C50;" width="7.081" height="1.133"/>
										<rect x="149.425" y="337.915" style="fill:#063C50;" width="7.081" height="1.133"/>
										<rect x="149.455" y="341.975" style="fill:#063C50;" width="7.081" height="1.133"/>
										<rect x="149.435" y="346.036" style="fill:#063C50;" width="7.081" height="1.133"/>
										<rect x="149.435" y="350.096" style="fill:#063C50;" width="7.081" height="1.133"/>
									</g>
								</g>
								<g>
									<circle style="fill:#FFFFFF;" cx="152.966" cy="371.866" r="5.088"/>
									<circle style="fill:#063C50;" cx="152.966" cy="371.866" r="3.609"/>
								</g>
							</g>
						</g>
					</g>
				</g>
			</g>
			<g>
				<g>
					<path style="fill:#FFFFFF;" d="M308.129,138.184c0,0,5.167,16.477-11.622,27.8c0,0,13.383,6.534,21.533,3.988
						c8.149-2.546,23.253-15.704,24.116-41.965L308.129,138.184z"/>
					<path style="fill:#FFFFFF;" d="M324.47,169.5c5.21-2.165,9.069-4.372,12.37-8.542c2.652-3.351,5.316-8.838,5.314-13.666
						C338.833,156.392,332.967,164.291,324.47,169.5z"/>
					<path style="fill:#FFFFFF;" d="M312.808,172.815c-2.634,0.666-5.293,1.334-7.966,1.189c-2.186-0.118-5.418-0.755-6.934-3.194
						c1.63-0.701,5.173,1.557,7.107,1.898C307.599,173.165,310.219,173.205,312.808,172.815z"/>
				</g>
				<g>
					<path style="fill:#FFFFFF;" d="M361.125,200.185c-0.517-0.495,15.655-18.43,15.655-18.43s16.116,13.867,31.819,9.341
						l-5.671,28.232C402.928,219.329,381.604,219.824,361.125,200.185z"/>
					<path style="fill:#FFFFFF;" d="M399.108,220.947c0,0-18.582-1.1-34.856-14.734
						C364.252,206.213,375.028,222.486,399.108,220.947z"/>
					<path style="fill:#FFFFFF;" d="M409.664,193.568c0,0-2.419,15.724-4.178,22.321
						C405.486,215.889,410.434,209.181,409.664,193.568z"/>
				</g>
				<g>
					<path style="fill:#FFFFFF;" d="M203.924,93.354c0,0,16.805-2.077,21.345-12.26c3.827-8.586,5.285-13.893,14.064-18.284
						l28.632,8.577c0,0-12.946,6.555-17.606,20.863c-3.908,12-19.5,15.264-19.5,15.264L203.924,93.354z"/>
					<path style="fill:#FFFFFF;" d="M261.274,79.787c0,0-7.746,7.428-9.639,16.224c-1.893,8.796-12.543,12.748-12.543,12.748
						s11.263-0.767,14.196-11.796C256.223,85.935,260.387,80.775,261.274,79.787z"/>
					<path style="fill:#FFFFFF;" d="M204.839,97.23l19.914,10.284C224.753,107.514,211.858,104.412,204.839,97.23z"/>
				</g>
				<g>
					<path style="fill:#FFFFFF;" d="M197.679,170.418c0,0-7.502-16.718,8.777-30.746c0,0-14.919-5.215-23.189-1.515
						c-8.27,3.7-22.543,19.451-20.176,47.233L197.679,170.418z"/>
					<path style="fill:#FFFFFF;" d="M179.602,138.253c0,0-18.092,10.718-18.431,34.243
						C161.17,172.496,156.173,149.76,179.602,138.253z"/>
					<path style="fill:#FFFFFF;" d="M194.916,173.988l-24.754,10.297C170.162,184.285,184.453,181.794,194.916,173.988z"/>
				</g>
				<g>
					<path style="fill:#FFFFFF;" d="M82.872,219.18c-0.751-0.061,0.51-25.475,0.51-25.475s22.395,0.59,32.202-13.562l14.171,26.83
						C129.755,206.973,112.673,221.578,82.872,219.18z"/>
					<path style="fill:#FFFFFF;" d="M87.698,221.088c0,0,18.645,2.326,38.965-9.615C126.663,211.473,109.218,226.81,87.698,221.088z
						"/>
					<path style="fill:#FFFFFF;" d="M86.464,191.281c0,0,13.622,0.643,24.545-8.61C111.009,182.671,97.901,190.253,86.464,191.281z"
						/>
				</g>
			</g>
		</g>
		<g>
			<g>
				<path style="fill:#052C39;" d="M330.853,291.366c0,0-5.418,12.355-27.465,17.587c-21.276,5.039-50.408,0.4-52.421,0.072
					c-2.012,0.333-31.135,5.03-52.421,0.035c-22.058-5.187-27.501-17.531-27.501-17.531l10.64-25.203l37.458,2.9l3.643-4.295
					l28.143,7.433l28.128-7.49l3.652,4.288l37.683-3.003L330.853,291.366z"/>
				<path style="fill:none;stroke:#AE3838;stroke-width:0.75;stroke-linecap:round;stroke-miterlimit:10;" d="M255.36,314.134
					c0,0,7.194-0.92,10.839-2.122"/>
				<g>
					<path style="fill:#F2F9F9;" d="M203.684,322.446c8.003-1.225,13.222-1.839,19.832-2.803c6.61-0.964,16.351-2.193,15.908-10.455
						c-0.443-8.264-12.447-8.078-15.229-7.815c-2.785,0.265-17.66,0.889-24.706-0.061c-1.725-0.233-3.018-0.375-4.136-0.43
						c0,0-0.002,0-0.004,0c-3.458-0.164-5.29,0.539-13.17,2.188c-10.434,2.185-10.343,7.23-10.343,7.23s-0.25,3.306,3.864,5.947
						c0.002,0.002,0.002,0.002,0.004,0.004c0.697,0.445,1.519,0.874,2.489,1.262C184.892,320.203,195.683,323.671,203.684,322.446z"
						/>
					<path style="fill:#FFA78F;" d="M237.249,309.19c0,0,1.221,2.869-5.736,5.312c-6.957,2.443-12.826,4.493-16.395,2.757
						c-3.568-1.736-4.969-7.839-3.1-11.653c1.869-3.814,8.667-2.836,11.857-1.969c3.191,0.867,9.686,0.976,11.891,2.714
						C237.973,308.087,237.249,309.19,237.249,309.19z"/>
					<path style="fill:#B2C9D8;" d="M175.699,316.246c-3.965-3.523-3.363-7.614,1.091-9.866c4.406-2.226,18.244-5.425,18.558-5.499
						c-3.458-0.164-5.29,0.539-13.17,2.188c-10.434,2.185-10.343,7.23-10.343,7.23S171.584,313.605,175.699,316.246z"/>
					<g>
						<g>
							<path style="fill:#212473;" d="M207.504,314.261c-0.179,0-0.354-0.086-0.46-0.247c-0.097-0.147-2.347-3.638-0.189-7.118
								c0.16-0.259,0.5-0.337,0.758-0.178c0.258,0.16,0.337,0.5,0.178,0.758c-1.783,2.873,0.092,5.809,0.173,5.932
								c0.166,0.254,0.095,0.595-0.159,0.762C207.712,314.232,207.607,314.261,207.504,314.261z"/>
						</g>
					</g>
					<g>
						<g>
							<path style="fill:#212473;" d="M205.184,314.531c-0.179,0-0.354-0.086-0.46-0.247c-0.097-0.147-2.347-3.638-0.19-7.118
								c0.161-0.259,0.499-0.337,0.758-0.178c0.258,0.161,0.338,0.5,0.178,0.758c-1.782,2.873,0.092,5.809,0.173,5.932
								c0.166,0.254,0.095,0.596-0.159,0.762C205.392,314.502,205.287,314.531,205.184,314.531z"/>
						</g>
					</g>
					<g>
						<g>
							<path style="fill:#212473;" d="M202.863,314.533c-0.179,0-0.354-0.086-0.46-0.247c-0.097-0.147-2.347-3.638-0.189-7.118
								c0.16-0.259,0.499-0.337,0.758-0.178c0.258,0.16,0.338,0.5,0.178,0.758c-1.782,2.873,0.092,5.809,0.173,5.932
								c0.166,0.254,0.095,0.595-0.159,0.762C203.071,314.504,202.966,314.533,202.863,314.533z"/>
						</g>
					</g>
					<g>
						<g>
							<path style="fill:#212473;" d="M200.543,314.713c-0.179,0-0.355-0.087-0.461-0.247c-0.096-0.147-2.346-3.638-0.188-7.117
								c0.16-0.259,0.499-0.336,0.758-0.178c0.258,0.16,0.337,0.5,0.178,0.758c-1.791,2.887,0.152,5.9,0.172,5.93
								c0.167,0.254,0.097,0.595-0.157,0.763C200.751,314.684,200.646,314.713,200.543,314.713z"/>
						</g>
					</g>
				</g>
				<g>
					<path style="fill:#FFA78F;" d="M232.641,316.434c-4.19,0.274-7.602,0.423-9.624,0.487c-1.286,0.043-2.001,0.064-2.001,0.064
						s-3.975-2.827-4.691-13.136c0,0,2.779-0.967,7.133-2.476c0.944-0.322,1.949-0.666,3.027-1.04l4.076,0.494
						c0,0,3.43,7.671,3.993,10.036C234.866,312.179,233.738,314.556,232.641,316.434z"/>
					<path style="fill:#F9867D;" d="M232.641,316.434l-9.624,0.487l0.441-15.547c0.944-0.322,1.949-0.666,3.027-1.04l4.076,0.494
						c0,0,3.43,7.671,3.993,10.036C234.866,312.179,233.738,314.556,232.641,316.434z"/>
					<path style="fill:#043649;" d="M316.353,301.009c-6.469,3.108-17.688,5.94-30.006,8.359
						c-26.535,5.213-58.143,8.522-58.143,8.522l-3.94-19.66l32.14-10.985l57.945-19.796c0,0,13.58-6.071,18.168,7.729
						C337.104,288.978,328.813,295.033,316.353,301.009z"/>
				</g>
				<g>
					<g>
						<path style="fill:#F2F9F9;" d="M297.184,322.28c-8.006-1.209-13.226-1.812-19.837-2.763
							c-6.612-0.95-16.355-2.16-15.929-10.423c0.426-8.265,12.431-8.103,15.214-7.846c2.785,0.26,17.661,0.853,24.706-0.111
							c1.724-0.236,3.017-0.382,4.135-0.439c0,0,0.002,0,0.004,0c3.458-0.171,5.291,0.528,13.174,2.161
							c10.439,2.164,10.358,7.209,10.358,7.209s0.257,3.305-3.852,5.954c-0.002,0.002-0.002,0.002-0.004,0.004
							c-0.696,0.446-1.517,0.877-2.487,1.267C315.971,319.998,305.187,323.489,297.184,322.28z"/>
						<path style="fill:#FFA78F;" d="M263.592,309.091c0,0-1.215,2.872,5.746,5.3c6.962,2.429,12.835,4.467,16.4,2.723
							c3.565-1.743,4.952-7.849,3.076-11.659c-1.876-3.81-8.673-2.818-11.861-1.945c-3.189,0.873-9.684,0.996-11.885,2.738
							C262.866,307.99,263.592,309.091,263.592,309.091z"/>
						<path style="fill:#B2C9D8;" d="M325.156,316.023c3.958-3.531,3.347-7.621-1.111-9.863c-4.411-2.217-18.255-5.388-18.569-5.461
							c3.458-0.171,5.291,0.528,13.174,2.161c10.439,2.164,10.358,7.209,10.358,7.209S329.266,313.374,325.156,316.023z"/>
						<g>
							<g>
								<path style="fill:#212473;" d="M293.347,314.102c0.179,0,0.354-0.087,0.459-0.248c0.097-0.147,2.34-3.643,0.174-7.118
									c-0.161-0.258-0.5-0.335-0.759-0.176c-0.258,0.161-0.336,0.5-0.176,0.759c1.789,2.87-0.08,5.809-0.16,5.932
									c-0.165,0.255-0.094,0.596,0.16,0.762C293.139,314.073,293.244,314.102,293.347,314.102z"/>
							</g>
						</g>
						<g>
							<g>
								<path style="fill:#212473;" d="M295.668,314.367c0.179,0,0.354-0.087,0.459-0.248c0.097-0.148,2.34-3.643,0.175-7.118
									c-0.161-0.258-0.5-0.336-0.759-0.176c-0.258,0.161-0.337,0.5-0.176,0.759c1.788,2.869-0.081,5.809-0.161,5.932
									c-0.165,0.254-0.094,0.596,0.16,0.761C295.46,314.339,295.565,314.367,295.668,314.367z"/>
							</g>
						</g>
						<g>
							<g>
								<path style="fill:#212473;" d="M297.989,314.365c0.179,0,0.354-0.087,0.459-0.248c0.096-0.147,2.34-3.643,0.175-7.118
									c-0.161-0.259-0.5-0.336-0.759-0.176c-0.258,0.161-0.337,0.5-0.176,0.759c1.788,2.869-0.081,5.809-0.161,5.932
									c-0.165,0.254-0.094,0.596,0.16,0.761C297.781,314.336,297.885,314.365,297.989,314.365z"/>
							</g>
						</g>
						<g>
							<g>
								<path style="fill:#212473;" d="M300.309,314.54c0.179,0,0.355-0.087,0.46-0.248c0.096-0.147,2.339-3.643,0.174-7.118
									c-0.161-0.258-0.5-0.335-0.759-0.176c-0.258,0.161-0.337,0.5-0.176,0.759c1.797,2.884-0.14,5.901-0.16,5.931
									c-0.166,0.254-0.096,0.596,0.158,0.763C300.101,314.511,300.206,314.54,300.309,314.54z"/>
							</g>
						</g>
					</g>
					<g>
						<path style="fill:#FFA78F;" d="M268.215,316.326c4.19,0.266,7.603,0.407,9.625,0.467c1.286,0.04,2.002,0.06,2.002,0.06
							s3.969-2.835,4.664-13.145c0,0-2.78-0.962-7.138-2.461c-0.944-0.321-1.951-0.662-3.03-1.034l-4.076,0.502
							c0,0-3.415,7.678-3.972,10.043C265.981,312.076,267.114,314.45,268.215,316.326z"/>
						<path style="fill:#F9867D;" d="M268.215,316.326l9.625,0.467l-0.472-15.546c-0.944-0.321-1.951-0.662-3.03-1.034l-4.076,0.502
							c0,0-3.415,7.678-3.972,10.043C265.981,312.076,267.114,314.45,268.215,316.326z"/>
						<path style="fill:#063C50;" d="M272.659,317.778l3.895-19.675l-90.145-30.59c0,0-13.594-6.048-18.155,7.76
							c-4.561,13.808,3.746,19.853,16.213,25.802C204.9,310.825,272.659,317.778,272.659,317.778z"/>
					</g>
				</g>
			</g>
			<g>
				<g>
					<path style="fill:#FFA78F;" d="M352.33,243.643l-3.084,11.299c0,0-8.571,3.039-24.626,5.76
						c-0.153,0.021-0.314,0.048-0.476,0.074c-8.638,1.435-17.859,1.559-24.63,1.372l3.755-17.236
						c4.801-0.49,11.379-0.541,18.31-0.496C333.001,244.474,345.379,244.768,352.33,243.643z"/>
					<path style="fill:#F9867D;" d="M321.578,244.417l3.041,16.286c-0.153,0.021-0.314,0.048-0.476,0.074
						c-8.638,1.435-17.859,1.559-24.63,1.372l3.755-17.236C308.07,244.423,314.647,244.372,321.578,244.417z"/>
					<g>
						<path style="fill:#FFA78F;" d="M346.785,255.749c0,0,2.904-0.588,4.792-0.302c1.889,0.286,8.786-0.384,14.442-4.318
							c5.655-3.935,9.575-4.67,11.242-6.199c1.667-1.529-1.85-2.323-6.289,0.027c-3.339,1.767-3.602,1.394-3.602,1.394
							s5.383-3.88,8.756-5.521c3.373-1.642,4.244-1.971,4.569-2.734c0.325-0.763-2.103-2.369-5.312-0.455
							c-3.209,1.914-6.772,3.533-8.132,4.353c0,0,3.48-2.405,4.431-3.251c0.951-0.846,6.019-5.273,6.807-5.955
							c0.788-0.683,1.146-1.286,0.711-1.902c-0.354-0.501-1.554-0.811-4.238,1.395c-3.194,2.626-9.952,6.686-9.952,6.686
							s3.334-2.913,2.891-5.889c-0.443-2.976-8.038-5.464-8.8-5.353c-0.762,0.111-0.65,1.744,0.696,2.794
							c1.346,1.05,3.927,2.315,4.039,3.585c0.112,1.271-2.786,4.255-4.02,4.621c-1.234,0.366-0.359-6.45-0.563-7.733
							c-0.203-1.283-1.932-3.154-2.948-2.862c-1.016,0.293-0.319,3.16-0.388,4.976c-0.068,1.816-1.296,4.796-2.853,6.724
							c-1.557,1.928-2.57,3.528-3.11,5.309c-0.541,1.781-2.9,1.968-2.9,1.968L346.785,255.749z"/>
						<path style="fill:none;stroke:#AE3838;stroke-width:0.75;stroke-linecap:round;stroke-miterlimit:10;" d="M359.953,241.518
							c0,0-1.741,4.007-4.662,5.657"/>
						<path style="fill:none;stroke:#AE3838;stroke-width:0.75;stroke-linecap:round;stroke-miterlimit:10;" d="M361.046,241.003
							c0,0,1.046,5.054,2.724,7.089"/>
					</g>
				</g>
				<g>
					<path style="fill:#F2F9F9;" d="M315.937,243.68l0.644,19.041c0,0-17.067,1.253-22.181-0.495
						c-2.23-0.762-5.166-7.32-7.287-12.701c-2.132-5.381-4.66-13.209-4.66-13.209l-6.021-46.24c0,0,6.584,0.684,12.058,6.356
						c4.748,4.919,13.185,42.369,16.621,45.879C307.16,244.405,309.373,242.773,315.937,243.68z"/>
					<path style="fill:#C7D7E2;" d="M312.048,243.101c0,0,3.648-1.947,7.207-0.093l1.838,19.076c0,0-4.752,2.207-7.135,1.062
						L312.048,243.101z"/>
				</g>
			</g>
			<g>
				<g>
					<path style="fill:#FFA78F;" d="M152.386,243.847l3.107,11.293c0,0,8.577,3.022,24.638,5.71
						c0.153,0.021,0.315,0.047,0.476,0.073c8.641,1.418,17.862,1.523,24.633,1.322l-3.79-17.228
						c-4.802-0.48-11.38-0.518-18.311-0.458C171.717,244.638,159.339,244.957,152.386,243.847z"/>
					<path style="fill:#F9867D;" d="M183.139,244.558l-3.008,16.292c0.153,0.021,0.315,0.047,0.476,0.073
						c8.641,1.418,17.862,1.523,24.633,1.322l-3.79-17.228C196.648,244.536,190.071,244.499,183.139,244.558z"/>
					<g>
						<path style="fill:#FFA78F;" d="M157.955,255.941c0,0-2.905-0.582-4.793-0.292c-1.888,0.29-8.787-0.366-14.45-4.289
							c-5.663-3.923-9.585-4.65-11.254-6.176c-1.67-1.526,1.845-2.326,6.289,0.014c3.342,1.76,3.605,1.386,3.605,1.386
							s-5.391-3.869-8.767-5.503c-3.376-1.635-4.248-1.962-4.574-2.725c-0.327-0.763,2.098-2.373,5.311-0.466
							c3.213,1.907,6.779,3.52,8.141,4.337c0,0-3.485-2.398-4.438-3.242c-0.953-0.845-6.029-5.261-6.819-5.941
							c-0.79-0.681-1.149-1.283-0.715-1.9c0.353-0.502,1.552-0.814,4.24,1.386c3.199,2.619,9.965,6.666,9.965,6.666
							s-3.34-2.906-2.903-5.883c0.437-2.977,8.026-5.48,8.789-5.371c0.762,0.109,0.653,1.743-0.691,2.796
							c-1.344,1.053-3.922,2.323-4.032,3.594c-0.109,1.271,2.795,4.249,4.029,4.613c1.234,0.364,0.346-6.451,0.547-7.734
							c0.201-1.283,1.925-3.158,2.942-2.868c1.017,0.291,0.326,3.159,0.398,4.975c0.072,1.816,1.306,4.793,2.867,6.718
							c1.561,1.925,2.577,3.523,3.121,5.302c0.544,1.78,2.904,1.962,2.904,1.962L157.955,255.941z"/>
						<path style="fill:none;stroke:#AE3838;stroke-width:0.75;stroke-linecap:round;stroke-miterlimit:10;" d="M144.759,241.737
							c0,0,1.75,4.003,4.674,5.647"/>
						<path style="fill:none;stroke:#AE3838;stroke-width:0.75;stroke-linecap:round;stroke-miterlimit:10;" d="M143.665,241.224
							c0,0-1.036,5.056-2.709,7.095"/>
					</g>
				</g>
				<g>
					<path style="fill:#F2F9F9;" d="M188.779,243.81l-0.606,19.042c0,0,17.069,1.218,22.18-0.54
						c2.229-0.767,5.151-7.331,7.261-12.716c2.121-5.385,4.633-13.218,4.633-13.218l5.927-46.252c0,0-5.918-0.84-11.381,4.843
						c-4.738,4.929-13.763,43.933-17.191,47.45C197.558,244.516,195.341,242.889,188.779,243.81z"/>
					<path style="fill:#C7D7E2;" d="M192.667,243.222c0,0-3.652-1.939-7.207-0.078l-1.799,19.08c0,0,4.757,2.198,7.137,1.048
						L192.667,243.222z"/>
				</g>
			</g>
			<g>
				<g>
					<path style="fill:#FFA78F;" d="M263.89,193.124l-13.154,12.914l-13.19-12.887c1.55-2.253,2.568-4.79,3.227-7.226
						c1.474-5.441,1.175-10.366,1.175-10.366l17.504-0.018c0,0-0.162,2.793,0.402,6.496
						C260.353,185.446,261.469,189.635,263.89,193.124z"/>
					<path style="fill:#F9867D;" d="M259.854,182.038c-3.609,1.814-10.067,4.136-19.081,3.888
						c1.474-5.441,1.175-10.366,1.175-10.366l17.504-0.018C259.452,175.542,259.289,178.335,259.854,182.038z"/>
				</g>
				<g>
					<g>
						<path style="fill:#F9867D;" d="M277.823,159.101c1.192,2.378-0.532,5.656-3.851,7.32c-3.319,1.664-6.977,1.085-8.169-1.293
							c-1.192-2.379,0.532-5.656,3.851-7.32C272.973,156.143,276.63,156.723,277.823,159.101z"/>
						<path style="fill:#F9867D;" d="M223.48,159.518c-1.156,2.396,0.618,5.647,3.963,7.26c3.344,1.613,6.993,0.978,8.148-1.419
							c1.156-2.396-0.618-5.647-3.963-7.26C228.284,156.486,224.636,157.121,223.48,159.518z"/>
					</g>
					<g>
						<path style="fill:#FFA78F;" d="M271.361,157.338c0.098,12.778-9.069,24.481-20.256,24.567
							c-11.187,0.086-20.158-11.478-20.256-24.256c-0.098-12.778,8.891-23.206,20.078-23.291
							C262.115,134.272,271.263,144.561,271.361,157.338z"/>
						<path style="fill:#F9867D;" d="M233.037,155.375c0,0,1.074-3.066,1.912-4.588l4.746-0.687c0,0-0.033,1.933,3.009,2.034
							c3.042,0.102,16.779-1.241,22.965-3.03c0,0,2.969,2.852,3.346,5.048c0,0,2.533-4.468-0.008-7.45
							c-2.54-2.982-8.418-8.989-10.167-8.987c-1.749,0.002-18.118,0.018-18.118,0.018s-5.998,7.418-6.557,7.558
							c-0.559,0.141-1.138,1.71-1.138,1.71l-1.98,7.189L233.037,155.375z"/>
					</g>
					<path style="fill:#072D38;" d="M232.43,166.32c0,0-0.83-10.401,2.936-19.138l-0.8-11.47
						C234.567,135.712,221.641,142.394,232.43,166.32z"/>
					<g>
						<path style="fill:#072D38;" d="M269.864,166.282c0,0,0.809-10.403-2.975-19.132c0,0-10.141,2.531-19.765,3.132
							c-9.665,0.601-2.813-2.725-1.994-3.13c-0.684,0.25-6.708,2.309-12.122,1.962h-0.01c-0.062,0-0.135,0-0.197-0.01
							c-0.851-0.061-1.67-0.185-2.458-0.381c-0.394-0.103-0.747-0.217-1.069-0.362c-0.01,0-0.01,0-0.01,0
							c-0.841-0.372-1.567-0.859-2.169-1.377c-2.076-1.771-2.836-3.99-2.836-3.99c1.917-2.097,3.491-4.183,4.402-5.449
							c0.021-0.031,0.041-0.062,0.062-0.093c0.331-0.457,0.559-0.799,0.683-0.986c0.073-0.093,0.104-0.145,0.104-0.145
							c1.75-2.387,4.63-5.398,9.14-7.809c8.842-4.728,25.024-2.266,29.016,7.168C267.666,135.678,280.605,142.334,269.864,166.282z"
							/>
						<path style="fill:#0F5C60;" d="M267.666,135.678c0,0-8.46-7.594-17.463-7.46c-9.002,0.134-16.184,5.534-19.167,9.53
							c-2.983,3.986-5.065,6-5.065,6c0.022,1.068,1.123,3.235,1.123,3.235c-2.076-1.771-2.836-3.99-2.836-3.99
							c1.917-2.097,3.491-4.183,4.402-5.449c0.021-0.031,0.041-0.062,0.062-0.093c0.331-0.457,0.559-0.799,0.683-0.986
							c0.073-0.093,0.104-0.145,0.104-0.145c1.75-2.387,4.63-5.398,9.14-7.809C247.492,123.782,263.673,126.244,267.666,135.678z"/>
					</g>
					<g>
						<path style="fill:none;stroke:#C94357;stroke-linecap:round;stroke-linejoin:round;stroke-miterlimit:10;" d="
							M249.868,160.402c0,0-0.947,4.109,0.315,6.867"/>
						<path style="fill:none;stroke:#C94357;stroke-linecap:round;stroke-linejoin:round;stroke-miterlimit:10;" d="
							M249.861,170.769c0,0,5.723,0.761,8.192-3.603"/>
						<g>
							<path style="fill:none;stroke:#072D38;stroke-linecap:round;stroke-linejoin:round;stroke-miterlimit:10;" d="
								M255.322,153.572c2.148-0.502,5.713,0.516,7.54,2.654"/>
							<path style="fill:none;stroke:#072D38;stroke-linecap:round;stroke-linejoin:round;stroke-miterlimit:10;" d="
								M255.405,160.051c1.527,0.768,3.361,0.901,4.982,0.362"/>
						</g>
						<g>
							<path style="fill:none;stroke:#072D38;stroke-linecap:round;stroke-linejoin:round;stroke-miterlimit:10;" d="
								M245.243,153.582c-2.149-0.498-5.712,0.528-7.534,2.669"/>
							<path style="fill:none;stroke:#072D38;stroke-linecap:round;stroke-linejoin:round;stroke-miterlimit:10;" d="
								M245.173,160.061c-1.525,0.771-3.359,0.908-4.982,0.372"/>
						</g>
					</g>
				</g>
			</g>
			<g>
				<path style="fill:#F2F9F9;" d="M284.032,268.353c1.371,2.021-7.937,7.496-33.188,10.312h-0.021
					c-0.332-0.041-0.664-0.072-0.996-0.113c-0.353-0.041-0.695-0.082-1.037-0.113c-23.722-2.839-32.502-8.046-31.187-10.018
					c0.797-1.193,1.159-2.698,1.313-3.735c0-0.135-0.011-0.259-0.011-0.394c-0.085-2.396-0.265-5.102-0.506-8.017
					c-1.113-13.865-3.497-32.448-3.271-44.365c0.315-16.698,1.981-20.05,9.841-21.779c3.691-0.813,9.592-1.202,14.819-1.405
					c0,0,2.747,8.616,10.92,8.607c8.173-0.008,10.902-8.63,10.902-8.63c1.255,0.05,2.531,0.101,3.817,0.173
					c4.107,0.224,8.194,0.593,11.005,1.202c7.863,1.714,9.536,5.062,9.885,21.759c0.044,2.406-1.76,23.897-2.864,39.269
					c-0.399,5.559-0.705,10.32-0.806,13.089C282.774,265.222,283.118,266.995,284.032,268.353z"/>
				<g>
					<path style="fill:none;stroke:#C7D7E2;stroke-linecap:round;stroke-linejoin:round;stroke-miterlimit:10;" d="M217.61,248.497
						c-1.298-13.095-2.211-26.228-2.737-39.377"/>
					<path style="fill:none;stroke:#C7D7E2;stroke-linecap:round;stroke-linejoin:round;stroke-miterlimit:10;" d="M210.692,222.445
						c1.493,2.393,3.193,4.657,5.073,6.758"/>
				</g>
				<g>
					<path style="fill:none;stroke:#C7D7E2;stroke-linecap:round;stroke-linejoin:round;stroke-miterlimit:10;" d="M283.999,240.645
						c0-11.057,0.438-22.35,0.438-33.407"/>
					<path style="fill:none;stroke:#C7D7E2;stroke-linecap:round;stroke-linejoin:round;stroke-miterlimit:10;" d="M284.129,228.319
						c2.006-1.731,3.746-3.768,5.143-6.019"/>
				</g>
				<path style="fill:#D3E3EA;" d="M250.843,278.664h-0.021c-25.257-2.764-34.576-8.22-33.219-10.244
					c0.797-1.193,1.159-2.698,1.313-3.735c0-0.135-0.011-0.259-0.011-0.394c3.758,3.367,12.35,7.89,30.913,6.42
					c28.654-2.27,33.635-19.605,33.635-19.605c-0.399,5.559-0.705,10.32-0.806,13.089c0.125,1.027,0.47,2.8,1.384,4.158
					C285.403,270.374,276.095,275.849,250.843,278.664z"/>
				<path style="fill:#C1D7E5;" d="M248.068,201.248c0,0-1.645,15.698,4.516,22.963c6.16,7.265,11.471,13.749,11.347,30.089
					l8.711,4.359c0,0-0.905-22.032-10.143-30.233c-9.238-8.201-10.432-14.352-11.029-16.309c-0.596-1.957-1.159-9.648-1.159-9.648
					L248.068,201.248z"/>
				<g>
					<g>
						<path style="fill:#AEC6D6;" d="M249.748,201.243l0.079,77.308c-0.353-0.041-0.695-0.082-1.037-0.113l-0.078-77.194
							L249.748,201.243z"/>
					</g>
					<path style="fill:#AEC6D6;" d="M253.687,226.78c0.001,0.608-0.492,1.102-1.1,1.102c-0.608,0.001-1.102-0.492-1.102-1.1
						c-0.001-0.608,0.492-1.102,1.1-1.102C253.193,225.679,253.687,226.172,253.687,226.78z"/>
					<path style="fill:#AEC6D6;" d="M253.7,239.694c0.001,0.608-0.492,1.102-1.1,1.102c-0.608,0.001-1.102-0.492-1.102-1.1
						c-0.001-0.608,0.492-1.102,1.1-1.102C253.206,238.593,253.7,239.085,253.7,239.694z"/>
					<path style="fill:#AEC6D6;" d="M253.713,252.24c0.001,0.608-0.492,1.102-1.1,1.102c-0.608,0.001-1.102-0.492-1.102-1.1
						c-0.001-0.608,0.492-1.102,1.1-1.102S253.712,251.632,253.713,252.24z"/>
					<path style="fill:#AEC6D6;" d="M253.726,264.786c0.001,0.608-0.492,1.102-1.1,1.102c-0.608,0.001-1.102-0.492-1.102-1.1
						c-0.001-0.608,0.492-1.102,1.1-1.102C253.232,263.685,253.725,264.178,253.726,264.786z"/>
				</g>
				<path style="fill:#0D939C;" d="M275.516,240.759c-2.245-7.689-15.748-15.716-19.39-21.795c-2.63-4.39-3.549-11.678-3.857-15.39
					l4.003-4.011l-5.572-2.209l-5.567,2.221l4.109,4.1c-0.335,20.089,9.917,23.428,13.962,31.364
					c4.203,8.246,4.075,19.434,4.075,19.434l6.438,5.028l3.909-6.437C277.626,253.063,277.762,248.448,275.516,240.759z"/>
				<path style="fill:#C7D7E2;" d="M261.613,188.705c0,0-3.163,6.495-10.907,8.63c0,0,3.276,3.802,9.147,3.9
					c5.87,0.099,4.012-12.533,4.012-12.533L261.613,188.705z"/>
				<path style="fill:#C7D7E2;" d="M239.776,188.727c0,0,3.177,6.489,10.925,8.608c0,0-3.269,3.808-9.139,3.919
					c-5.87,0.111-4.037-12.524-4.037-12.524L239.776,188.727z"/>
			</g>
		</g>
	</g>
</g>
</svg>
